<?xml version="1.0" encoding="utf-8"?>
<!-- Generator: Adobe Illustrator 15.1.0, SVG Export Plug-In . SVG Version: 6.00 Build 0)  -->
<!DOCTYPE svg PUBLIC "-//W3C//DTD SVG 1.0//EN" "http://www.w3.org/TR/2001/REC-SVG-20010904/DTD/svg10.dtd">
<svg version="1.0" id="Layer_1" xmlns="http://www.w3.org/2000/svg" xmlns:xlink="http://www.w3.org/1999/xlink" x="0px" y="0px"
	 width="1000px" height="1000px" viewBox="0 0 1000 1000" enable-background="new 0 0 1000 1000" xml:space="preserve">
<g id="ice_cube">
	<g id="shirt_1_">
		<path id="neckline_1_" fill="#231F20" d="M295.391,590.37c0,0-7.994,23.005-7.296,54.396
			c0.725,32.637,13.314,61.507,14.064,58.504c1.935-7.735-1.208-40.857-4.833-53.671C293.072,634.562,295.391,590.37,295.391,590.37
			z"/>
		<path id="lapel_1_" fill="#231F20" d="M285.718,586.504c0,0-40.049,8.034-48.352,17.892c-11.523,13.684-13.922,73.03-13.182,90.9
			c1.04,25.108,10.875,73.078,19.467,78.088c17.407,10.154,60.923-23.691,60.923-23.691s-23.693-50.769-29.253-81.957
			C269.752,636.501,285.718,586.504,285.718,586.504z"/>
		<path id="shoulder_1_" fill="#231F20" d="M125.19,731.319c0.214-7.571,25.027-57.024,37.714-72.045
			c12.583-14.898,60.197-49.024,61.157-45.208c2.153,8.558-11.507,57.663-10.915,89.42c1.01,54.184,10.972,73.507,9.528,82.935
			c-1.096,7.16-28.102-4.333-28.102-4.333s5.505-20.585,8.531-47.706c3.34-29.942,4.026-66.848-0.794-70.273
			c-1.812-1.287-13.483,11.269-22,29.981c-10.233,22.481-17.408,51.975-17.408,51.975S125.066,735.671,125.19,731.319z"/>
		<ellipse id="button_1_" fill="#231F20" cx="398.327" cy="886.641" rx="17.944" ry="19.463"/>
		<path id="undershirt_1_" fill="#231F20" d="M313.264,719.964c-4.817,4.34,11.745,20.248,13.314,27.79
			c0.395,1.893-0.811,5.98,0,7.737c3.968,8.584,21.648,18.412,29.495,23.69c11.649,7.838,38.568,18.006,49.076,27.318
			c4.002,3.549,6.744,17.443,12.087,17.648c7.485,0.287,16.068-5.522,26.111-9.187c17.857-6.512,26.11-5.319,36.747-12.812
			c0.84-0.593,0.831-2.988,0-4.111c0,0,11.439-19.553,26.351-32.152c14.022-11.845,21.758-7.012,28.285-14.748
			c57.112-67.685,70.836-144.813,58.989-152.308c-3.996-2.528-11.2,10.227-11.605,14.938c-2.417,28.214-21.019,55.421-34.593,69.194
			c-20.167,20.465-52.418,38.453-83.631,44.117c-32.113,5.827-68.895,11.729-110.477,5.443
			C342.767,730.913,316.209,717.309,313.264,719.964z"/>
		<path id="shirt_accent_5_" fill="#231F20" d="M583.809,715.597c0,0-7.111,2.855-14.265,11.365
			c-5.643,6.71-11.754,18.701-11.362,23.448c0.263,3.196,6.144,9.953,9.186,8.947c4.664-1.544,2.175-11.578,4.836-20.309
			C575.873,727.009,583.809,715.597,583.809,715.597z"/>
		<path id="shirt_accent_4_" fill="#231F20" d="M456.885,829.224c-0.274-1.464-22.969,4.162-32.153,9.671
			c-2.419,1.45,5.56,15.956,7.736,14.745C445.792,846.23,457.247,831.156,456.885,829.224z"/>
		<path id="shirt_accent_3_" fill="#231F20" d="M552.379,763.949c0,0-9.41,26.893-3.868,33.121c0.321,0.361,1.534-0.274,1.935,0
			c1.078,0.729,0.856,4.104,1.934,4.835c6.505,4.407,31.43,0,31.43,0s-11.613-4.352-19.825-13.134
			C559.389,783.854,552.379,763.949,552.379,763.949z"/>
		<path id="left_shirt_edge_2_" fill="#231F20" d="M334.315,829.949c-2.901,4.836-3.98,16.62-3.626,22.243
			c0.878,13.934,12.935,33.503,19.582,57.777c10.396,37.956,19.099,77.846,19.099,77.846s1.934-18.132-6.527-63.338
			c-6.331-33.816,4.139-68.636,3.082-99.365c-0.543-15.81-4.714-25.02-21.214-36.341c-2.024-1.392-17.781-10.576-25.867-11.767
			c-5.6-0.824-22.277,1.838-27.561,3.87c-7.831,3.009-21.012,14.87-29.253,16.437c-7.623,1.451-30.944-1.931-30.944,1.211
			c0,2.42,11.536,10.168,16.198,10.639c11.007,1.104,32.552-4.271,43.032-0.729c5.599,1.894,11.483,9.184,22.073,12.813
			L334.315,829.949z"/>
		<path id="under_button_fold_1_" fill="#231F20" d="M380.383,906.104c0,0,2.404,70.229,3.492,76.395
			c0.438,2.482,3.733-8.641,6.165-7.978c3.989,1.086,1.208,27.273,8.287,25.384c1.504-0.398-2.49-12.477,0-31.55
			c3.331-25.512,10.932-56.57,10.932-56.57s-8.76,0.96-14.438,0.725C386.051,912.146,380.383,906.104,380.383,906.104z"/>
		<path id="collar_fold_1_" fill="#231F20" d="M543.193,760.562c-8.946-4.593-45.934,36.987-45.934,36.987
			s30.852-1.724,37.713-7.978C540.544,784.497,545.493,761.743,543.193,760.562z"/>
		<path id="collar_fold_2_1_" fill="#231F20" d="M493.15,811.815c0,0-39.406,34.087-54.637,57.536
			c-40.02,61.621-35.538,118.464-35.538,118.464s16.681-23.694,35.296-9.912c13.859,10.257,36.763,23.022,34.087,9.912
			c-2.417-11.849-2.729-28.062-1.451-34.762c10.154-53.24-2.403-64.918-9.983-64.918c-7.026,0-19.458,9.867-23.621,13.612
			c-21.825,19.634-2.328-15.224,3.283-24.9C460.895,841.835,493.15,811.815,493.15,811.815z"/>
		<path id="shirt_fold_1_" fill="#231F20" d="M583.809,828.989c0,0-20.792,23.44-45.693,73.614
			c-16.893,34.04-25.387,76.971-51.255,90.045c-12.639,6.389,62.854,11.137,58.025-2.177
			C523.792,932.315,583.809,828.989,583.809,828.989z"/>
	</g>
	<g id="hand_1_">
		<path id="index_nail_1_" fill="#231F20" d="M762.853,580.853c-1.545,3.425-9.05,0.333-21.782-5.414
			c-12.734-5.746-20.584-13.076-19.038-16.499c1.544-3.424,9.024-2.302,21.757,3.444
			C756.522,568.132,764.397,577.431,762.853,580.853z"/>
		<path fill="#231F20" d="M771.168,585.509l26.836,28.189l24.659,21.032c0,0-18.072-22.396-23.572-27.742
			C791.798,599.898,771.168,585.509,771.168,585.509z"/>
		<path fill="#231F20" d="M716.774,565.104c0,0-4.409,20.688,0.905,31.188c11.201,22.119,25.748,24.839,25.748,24.839
			s-16.278-17.912-19.951-24.85C720.02,589.754,716.774,565.104,716.774,565.104z"/>
		<path fill="#231F20" d="M744.516,622.038c0.79-1.748,6.353-2.35,7.615-0.907c6.346,7.254,35.719,34.45,35.719,34.45
			s-20.819,1.555-22.482,0c-1.847-1.724-16.863-23.027-20.852-28.104c-0.499-0.633,1.969-1.731,1.994-2.538
			C746.538,624.06,744.152,622.839,744.516,622.038z"/>
		<path fill="#231F20" d="M766.147,661.747c3.208-3.265,29.499,2.719,29.499,2.719s-8.984,18.271-11.241,24.659
			c-1.638,4.637-4.896,19.039-4.896,19.039s-18.469-1.074-20.669-5.984C756.481,696.921,765.22,662.691,766.147,661.747z"/>
		<path fill="#231F20" d="M846.778,737.528c-3.405-1.863-6.934-5.203-10.468-6.765c-1.655-4.186-9.445-24.112-10.656-31.666
			c-2.991-18.675-2.991-40.07-2.991-40.07s-8,11.06-7.978,31.186c0.008,7.689,4.184,28.954,5.439,35.177
			c-13.565-4.55-24.479-5.077-24.479-5.077c-0.884,0.673-1.867,2.706-0.906,3.263c2.176,1.27,28.829,5.985,42.428,15.775
			c9.604,6.915,34.813,30.823,34.813,30.823C872.677,762.922,862.184,745.957,846.778,737.528z"/>
		<path fill="#231F20" d="M689.213,602.273c0.666-1.204,3.885-1.699,5.258-1.631c1.969,0.099,5.385,2.46,7.253,3.082
			c3.589,1.195,12.08,0.89,14.687,3.627c2.822,2.961,1.367,12.275,2.72,16.137c0.715,2.038,5.432,4.552,5.439,6.709
			c0.003,0.559-5.9,2.279-11.604,6.346c-5.391,3.846-10.558,10.066-11.967,10.155c-1.761,0.11,7.978-29.012,7.978-29.012
			s-13.825-5.01-17.044-8.523C690.682,607.798,688.316,603.896,689.213,602.273z"/>
		<path fill="#231F20" d="M654.944,662.835c0,0-12.8-2.877-17.226-2.062c-2.944,0.541-8.097,3.285-9.609,5.868
			c-14.325,24.479-8.16,58.385-8.16,58.385s3.99-31.912,13.781-46.779c1.646-2.502,5.238-7.425,7.615-9.247
			C644.309,666.728,654.944,662.835,654.944,662.835z"/>
		<path fill="#231F20" d="M672.169,680.061c0,0,8.702,33.118,4.896,43.334c-4.436,11.903-38.44,33.725-38.44,33.725
			s12.524,1.055,16.319,0.545c9.106-1.223,28.896-9.475,30.643-18.495C693.385,698.918,672.169,680.061,672.169,680.061z"/>
		<path fill="#231F20" d="M621.582,760.209c-1.214,0.716,0.979,17.402,3.444,20.662c1.699,2.248,10.395-3.518,9.429-6.163
			C632.801,770.174,622.852,759.456,621.582,760.209z"/>
		<path fill="#231F20" d="M834.992,778.152c0,0,21.168-2.873,47.868,12.512c3.997,2.303,9.68,23.698,10.517,26.834
			c0.279,1.045-2.454,0.664-3.98-1.686c-2.324-3.571-4.535-11.18-8.712-15.539C868.174,787.218,834.992,778.152,834.992,778.152z"/>
		<path fill="#231F20" d="M642.252,924.657c0,0,0,10.335,18.312,37.351c6.136,9.053,30.462,31.389,30.462,31.389l4.896-4.916
			c0,0-15.89-13.277-26.835-24.478C653.494,948.048,642.252,924.657,642.252,924.657z"/>
		<path fill="#231F20" d="M896.822,860.612c-2.539-1.411-11.968,19.804-11.968,19.804s-9.425,13.128-12.147,17.769
			c-5.819,9.914-12.787,33.074-19.945,42.065c-14.143,17.769-29.192,27.197-29.192,27.197l29.374,27.924
			c0,0,13.236-22.847,19.764-40.615c4.118-11.213,7.746-33.291,11.241-50.587c3.445-17.045,10.554-16.523,12.148-23.935
			C897.134,875.415,902.689,863.871,896.822,860.612z"/>
		<path fill="#231F20" d="M710.427,718.933c0,0,15.997-14.949,22.847-16.753c6.891-1.812,12.071-1.225,15.05,1.088
			c1.733,1.347,4.745,5.098,4.895,7.288c0.276,4.017-3.045,14.419-7.07,14.47c-3.63,0.05-6.71-12.871-6.71-12.871l-1.994,1.449
			l0.362,8.341l-1.812,0.181c0,0-5.149-6.96-8.342-7.525c-5.451-0.961-19.944,8.251-19.944,8.251L710.427,718.933z"/>
		<path fill="#231F20" d="M673.801,776.048c-0.824,1.176-1.85,0.608-3.489-0.54c-1.638-1.153-2.58-2.378-1.754-3.555
			c0.824-1.175,2.517-0.632,4.156,0.52C674.352,773.625,674.627,774.871,673.801,776.048z"/>
		<path fill="#231F20" d="M670.858,783.276c-0.825,1.177-2.222-1.059-4.31-2.523c-2.087-1.466-2.64-3.246-1.812-4.421
			c0.823-1.177,2.627,0.539,4.714,2.005C671.538,779.801,671.684,782.102,670.858,783.276z"/>
		<path fill="#231F20" d="M662.057,762.092c-12.058,0.348-51.175,44.709-51.173,51.418c0.001,5.213,9.199,13.36,13.962,15.479
			c3.645,1.62,12.593,3.125,16.138,1.295c3.131-1.617,7.919-9.261,7.978-12.786c0.058-3.531-4.921-9.73-7.797-11.785
			c-2.792-1.991-13.279-3.446-13.279-3.446s9.271-2.526,11.465-4.717c1.843-1.836,2.687-7.354,3.99-9.605
			C647.344,781.043,663.33,762.055,662.057,762.092z"/>
		<path fill="#231F20" d="M675.435,821.855c-1.778-0.726,4.611-19.268,9.169-25.248c5.566-7.302,22.995-20.565,31.204-24.674
			c5.104-2.555,24.868-9.187,20.187-5.924c-3.988,2.782-15.57,12.438-30.221,25.145
			C692.114,802.999,679.089,823.344,675.435,821.855z"/>
		<path fill="#231F20" d="M761.62,780.273c0,0-0.972-10.011-2.659-12.813c-0.708-1.178-2.998-2.898-4.231-3.505
			c-1.111-0.547-3.604-0.95-4.835-1.088c-0.75-0.085-2.271-0.087-3.021,0c-1.85,0.213-7.253,1.692-7.253,1.692
			s-0.849,0.163-1.208,0.847c-0.768,1.454-0.959,5.502-0.727,7.131c0.316,2.218,0.424,6.853,1.451,8.845
			c0.448,0.869,1.839,3.028,2.78,2.761c2.024-0.582-0.13-7.787,1.934-8.203c1.46-0.295,2.658,3.593,3.506,4.815
			c1.877,2.709,5.877,9.905,7.253,11.002c0.402,0.32,1.908,0.371,2.056-0.122c0.624-2.082-3.432-16.559-3.432-16.559
			s3.064,3.965,4.52,4.697C758.624,780.212,760.957,780.987,761.62,780.273z"/>
		<path fill="#231F20" d="M778.061,767.944c0.443,1.171,6.478,11.481,10.397,21.516c5.185,13.271,8.445,20.283,8.458,26.957
			c0.002,0.404-0.804,1.071-1.209,1.081c-0.621,0.016-1.323-1.68-1.934-1.565c-0.652,0.122-0.914,1.778-1.329,2.297
			c-0.308,0.383-0.962,1.383-1.451,1.327c-0.992-0.105-1.44-2.751-2.297-3.262c-3.017-1.811-11.71-1.449-14.022,1.203
			c-1.55,1.782-0.354,7.227,0.486,9.435c1.907,5.026,7.022,19.49,11.713,16.866c4.005-2.242-0.674-13.836,2.915-14.087
			c3.063-0.213,0.197,11.652,3.264,11.845c3.298,0.207,1.776-12.006,5.076-12.207c3.121-0.19,3.143,11.678,6.166,10.879
			c4.675-1.232-1.6-18.8,0-19.341c0.5-0.168,4.876,4.313,6.647,5.562c6.284,4.429,19.716,12.986,27.318,14.142
			c6.16,0.938,20.535,0.425,24.539-4.352c1.184-1.412,1.505-6.31,0-7.374c-2.356-1.665-19.577-0.119-35.292-2.296
			c-3.971-0.55-7.949-2.979-11.729-3.748c-0.849-0.171-2.614,1.116-3.386,0.726c-0.396-0.197-0.801-1.179-0.725-1.614
			c0.096-0.561,1.365-1.116,1.571-1.649c1.567-4.038-0.295-13.049-1.209-17.284c-1.155-5.358-5.339-15.568-7.615-20.551
			c-1.617-3.543-6.08-12.274-7.494-13.66c-0.919-0.9-3.794-0.739-5.077-0.844c-0.752-0.062-2.469,0.513-3.022,0
			c-0.289-0.27,0.197-1.341-0.121-1.573C787.014,765.127,777.464,766.371,778.061,767.944z"/>
		<path fill="#231F20" d="M659.236,840.345c0,0-7.607,4.193-15.112,5.806c-6.719,1.438-13.354,0.187-14.383,2.172
			c-2.848,5.509,3.392,18.503,2.66,24.658c-0.613,5.166-8.462,9.915-7.013,19.583c0.952,6.341,7.011,17.166,17.892,18.377
			c4.733,0.523,15.229-1.452,15.956-10.399c1.278-15.725-4.354-13.295-7.495-19.096c-0.541-1.002-1.934-4.111-1.934-4.111
			l13.159,2.419l-5.906-16.925l2.9-13.538l-3.143-2.9L659.236,840.345z"/>
		<path fill="#231F20" d="M740.707,829.949c0,0-61.397,34.021-69.455,66.485c-3,12.089,9.741,21.998,12.399,21.998
			c3.586,0,9.672-2.175,12.271-7.418c1.978-3.984-3.558-13.715-1.632-17.724c0.192-0.4,1.187-0.724,1.632-0.724
			c1.339,0,3.676,2.728,4.896,2.175c2.77-1.252,3.627-11.605,3.627-11.605s9.392-20.037,13.538-26.107
			C722.841,849.915,740.707,829.949,740.707,829.949z"/>
		<path fill="#231F20" d="M717.014,908.28l28.77-16.44l30.945-14.021l14.506-8.705l9.187,9.429l12.812,4.837l-5.076,2.901
			l5.076,5.802l25.626,4.833c0,0-21.756,4.367-22.725,5.688c-0.967,1.323-9.852,5.228-12.329,8.411
			c-2.556,3.287-1.757,11.129-3.626,18.298c-3.701,14.194-10.396,29.712-10.396,29.712s-0.402-25.896-1.935-34.367
			c-0.813-4.505-5.498-15.547-7.494-22.054c-1.197-3.904,0.99-4.28-1.209-5.929c-0.824-0.618-4.109-1.271-4.109-0.24
			c0,0.762-6.831,31.371-14.99,48.833c-12.516,26.792-28.285,44.242-28.285,44.242s1.88-31.712,0.243-33.362
			c-1.595-1.608-7.495,5.075-7.495,5.075s12.196-31.91,10.879-36.565c-0.241-0.853-2.301-1.903-3.144-1.632
			c-0.75,0.244-4.242,6.099-8.462,10.396c-5.771,5.876-12.571,10.637-12.571,10.637s3.565-9.318,8.221-17.648
			c4.502-8.055,10.084-15.08,11.039-17.646c0.273-0.736,0.739-2.879,0-3.146C729.015,905.098,717.014,908.28,717.014,908.28z"/>
	</g>
	<g id="mouth_2_">
		<path id="cigar_cherry_1_" fill="#231F20" d="M678.576,560.639c-1.153,15.111-13.814,25.672-24.934,24.822
			c-11.117-0.848-19.193-13.786-18.041-28.896c1.153-15.109,11.098-26.673,22.215-25.825
			C668.936,531.588,679.729,545.529,678.576,560.639z"/>
		<path id="cigar_shaft_1_" fill="#231F20" d="M640.379,528.971c0,0-10.638,4.105-13.538,21.516
			c-2.901,17.406,4.109,28.284,4.109,28.284l-120.636-24.9c0,0-16.172-15.678-22.242-20.066
			c-11.041-7.978-33.408-5.203-33.408-5.203s5.696-2.072,12.133-4.226c4.45-1.485,6.424-1.883,11.362-3.626
			c5.079-1.792,8.925-5.15,12.814-5.561c5.147-0.54,0.661,10.316,3.626,9.913c15.956-2.177,26.109-14.748,26.109-14.748
			L640.379,528.971z"/>
		<path id="jawline_1_" fill="#231F20" d="M297.326,570.793c0,0,35.666,63.516,56.087,74.945c5.72,3.201,23.811,8.556,26.109,2.416
			c2.062-5.502-21.273-12.738-32.395-23.934c-9.077-9.137-20.144-18.499-28.528-27.559
			C305.753,582.775,297.327,570.793,297.326,570.793z"/>
		<polygon id="top_lip_1_" fill="#231F20" points="455.677,508.419 434.886,530.696 428.6,530.696 		"/>
		<path id="bottom_lip_1_" fill="#231F20" d="M431.26,540.332l10.879-2.175c0,0,9.142,9.508,12.525,12.329
			c4.957,4.131,20.836,15.472,20.836,15.472s-15.149-3.385-25.384-10.879C445.287,551.543,431.26,540.332,431.26,540.332z"/>
		<path id="mouth_3_" fill="#231F20" d="M568.336,505.269c-6.528-13.046-26.164-32.26-37.089-40.606
			c-7.104-5.427-16.34-16.352-31.812-16.326c-5.462,0.009-16.089,3.605-21.032,5.93c-13.54,6.367-34.259,22.569-51.495,36.748
			c-14.989,12.328-24.741,11.005-29.735,19.339c-8.223,13.719-10.582,38.051-13.297,62.616c-2.636,23.829-5.826,47.88-0.967,62.615
			c3.041,9.222,21.792,33.13,30.702,36.989c19.343,8.372,44.811,16.334,78.088,11.846c29.91-4.036,60.858-21.577,68.998-38.682
			c2.002-4.206,2.22-20.947,4.495-34.858c2.08-12.705,10.386-29.208,9.429-32.109c-0.825-2.507-8.421-4.894-10.153-2.9
			c-10.209,11.74-21.759,47.868-50.043,42.549c-3.336-0.628-9.596-6.531-9.283-9.912c0.893-9.665,31.665-20.957,31.283-22.998
			c-0.354-1.887-10.449-1.95-21.275-1.903c-7.222,0.032-14.883,2.275-18.737,1.729c-3.75-0.531-6.766-3.446-11.24-4.871
			c-5.169-1.645-11.973-1.9-19.098-3.869c-7.463-2.058-12.185-6.045-14.264-2.416c-3.843,6.709,10.952,12.91,20.549,21.031
			c3.143,2.66-5.802,13.783-17.694,15.671c-7.386,1.173-22.447-5.138-28.24-9.868c-4.353-3.551-5.445-11.996-8.703-20.064
			c-2.925-7.248-8.254-14.055-8.219-19.101c0.056-8.19,10.298-22.96,10.153-31.15c-0.021-1.232-2.288-3.55-1.692-4.628
			c0.418-0.759,2.634-0.294,3.384-0.726c10.664-6.147,24.993-27.592,35.296-34.329c7.919-5.177,23.934-13.296,35.055-14.264
			c2.156-0.188,6.527-6.527,11.12-6.044c13.996,1.472,22.483,8.462,22.483,8.462s13.547,6.253,21.033,12.813
			c7.486,6.562,12.571,11.36,14.361,14.745C561.605,508.445,569.205,507.008,568.336,505.269z"/>
	</g>
	<g id="nose_1_">
		<path id="nose_left_shadow_1_" fill="#231F20" d="M416.907,314.082c0.001,0,12.379,0.071,23.18,5.998
			c10.166,5.58,19.694,15.544,20.791,29.978c3.143,41.336-27.922,63.945-27.922,63.945c0,0-1.999,2.097-3.749,10.153
			c-0.746,3.433-3.815,15.746,6.771,22.725c6.452,4.253,24.476,1.827,31.708,5.077c2.167,0.974-18.574,4.87-31.949,3.143
			c-8.689-1.122-11.053-5.929-12.161-7.47c-10.225-14.236-8.851-25.57-6.668-27.222c24.147-18.253,20.358-37.477,19.937-51.943
			c-0.225-7.69-10.405,25.834-29.031,27.647c0,0,13.083-24.611,19.219-42.911c3.385-10.093,1.617-25.489,0.726-27.801
			C426.335,321.709,416.907,314.082,416.907,314.082z"/>
		<path id="nose_right_shadow_1_" fill="#231F20" d="M509.35,317.427c-1.933,2.895-1.873,19.361-0.729,25.681
			c1.79,9.889,8.751,21.514,13.06,38.015c2.49,9.545,0.967,18.646,3.505,17.648c2.769-1.088,2.048-30.433-3.505-45.57
			c-2.154-5.866-4.778-9.067-4.778-9.067s-0.201-4.25,2.722-10.032c2.853-5.644,8.825-12.817,9.309-13.176
			c0.626-0.464-5.071-0.723-10.533-1.935C514.394,318.103,510.516,315.678,509.35,317.427z"/>
		<path id="nose_undereye_shadow_1_" fill="#231F20" d="M529.404,356.947c-1.771,0,14.829,30.169,24.791,34.572
			c3.391,1.499,17.044,1.59,15.833-0.121c-4.009-5.675-6.646-1.088-20.217-12.088C539.549,370.991,531.8,356.947,529.404,356.947z"
			/>
		<path id="nose_right_shadow_2_1_" fill="#231F20" d="M529.898,409.892c0.449,2.6,3.974,5.626,6.164,8.945
			c3.108,4.706,5.28,6.76,5.078,9.429c-0.409,5.396-7.979,15.835-11.242,18.494c-2.541,2.071,9.87,3.345,12.934,2.176
			c0.903-0.345,3.776-3.196,5.198-3.989c3.115-1.739,10.895-3.625,12.33-6.891c0.743-1.69,0.108-5.624-0.485-7.373
			c-2.275-6.706-11.077-18.218-15.713-23.571c-1.004-1.16-3.663-3.285-5.197-3.264C536.24,403.885,529.435,407.208,529.898,409.892z
			"/>
		<path id="left_nostril_1_" fill="#231F20" d="M476.954,437.694c-0.939,4.305-7.828,4.722-17.286,2.659
			c-9.457-2.063-16.854-5.837-15.916-10.142c0.939-4.305,7.667-8.604,17.125-6.54C470.335,425.734,477.893,433.389,476.954,437.694z
			"/>
		<path id="right_nostril_1_" fill="#231F20" d="M531.227,426.614c0.115,1.107-0.171,2.976-3.273,4.794
			c-2.288,1.341-6.914,2.813-9.901,3.123c-7.038,0.732-12.708,1.69-12.907-0.235c-0.2-1.926,7.077-7.476,14.116-8.207
			C526.298,425.358,531.026,424.688,531.227,426.614z"/>
	</g>
	<g id="eyes_1_">
		<path id="right_brow_1_" fill="#231F20" d="M518.049,292.402c-3.967,0.237-6.385,15.47-2.418,15.715
			c9.792,0.604,25.687-0.665,33.968-2.659c8.943-2.154,14.988-14.506,33.978-14.143c5.01,0.096,11.359,1.384,17.999,8.825
			c5.84,6.542,9.619,17.485,10.76,17.285c8.858-1.552-4.021-27.368-9.066-34.813c-2.73-4.029-11.972-8.81-16.682-10.033
			c-4.126-1.071-12.939-0.586-17.043,0.573C556.317,276.886,528.203,291.798,518.049,292.402z"/>
		<path id="left_brow_1_" fill="#231F20" d="M304.824,328.061c-4.472-12.813,27.198-57.659,38.923-57.659
			c24.723,0,84.011,12.33,112.055,19.461c5.061,1.288,2.124,19.783-3.022,20.67c-5.542,0.956-14.263-2.78-24.901-6.89
			c-5.232-2.021-16.127-0.965-28.407-3.505c-16.297-3.372-34.897-10.067-44.604-9.308c-7.697,0.603-21.991,8.142-28.043,12.935
			C320.4,308.85,305.61,330.312,304.824,328.061z"/>
		<g id="left_eye_1_">
			<path id="left_eyelid_1_" fill="#231F20" d="M402.977,320.927c0,0-36.626-14.384-60.44-1.451
				c-3.218,1.748,0.726,17.89,6.891,15.23C377.986,322.387,402.977,320.927,402.977,320.927z"/>
			<path id="eyeball_3_" fill="#231F20" d="M406.625,340.402c0,5.575-6.425,12.799-15.07,12.799c-8.646,0-15.613-0.604-15.613-9.533
				c0-5.574,6.967-10.653,15.613-10.653C400.199,333.016,406.625,334.828,406.625,340.402z"/>
			<path id="eyeshape_left_1_" fill="#231F20" d="M365.263,335.002c5.341-2.571-21.12,8.684-21.155,10.705
				c-0.035,2.121,11.726,1.934,12.33,1.934c1.112,0-3.108-2.155-3.022-3.264C353.708,340.612,362.362,336.399,365.263,335.002z"/>
			<path id="eyeshape_right_1_" fill="#231F20" d="M417.24,339.904c0,0-0.891,4.67,0.242,5.802
				c1.731,1.731,10.146,1.823,8.815-0.231C424.727,343.054,417.24,339.904,417.24,339.904z"/>
		</g>
		<g id="right_eye_1_">
			<path id="eyeball_2_" fill="#231F20" d="M600.49,348.05c-0.814,6.482-10.889,6.482-20.862,6.482
				c-9.973,0-18.181-2.858-18.181-7.488c0-4.628,5.363-8.146,15.277-7.084C586.505,341.009,601.069,343.454,600.49,348.05z"/>
			<path id="eyeshape_top_1_" fill="#231F20" d="M573.173,325.4c0,0-29.011,0.725-44.968,15.956
				c-2.416,2.306,13.297,5.655,13.901,3.79c0.478-1.473-5.682-4.153-5.682-4.153s5.13-4.069,11.241-5.448
				c4.488-1.014,9.785,0.535,12.209-0.272C564.485,333.74,573.173,325.4,573.173,325.4z"/>
			<path id="eyeshape_bottom_1_" fill="#231F20" d="M548.03,359.246c0,0,18.774,4.254,25.143,4.956
				c6.01,0.663,24.177,0.604,24.177,0.604s1.953,8.166-22.001,5.439C560.48,368.553,548.03,359.246,548.03,359.246z"/>
		</g>
	</g>
	<g id="hairline_1_">
		<path id="sideburn_left_1_" fill="#231F20" d="M243.172,270.282c24.995-27.551,57.955-57.94,64.549-52.583
			c5.802,4.714-3.989,42.066-3.989,42.066s-19.328,27.346-23.208,37.714c-7.762,20.743-10.195,79.779-14.506,87.395
			c-3.524,6.227-5.788-21.444-10.879-26.472c-4.128-4.078-18.229-6.217-21.636-10.757c-5.561-7.409-1.935-33.847-1.935-33.847
			S235.607,278.621,243.172,270.282z"/>
		<path id="hairline_left_1_" fill="#231F20" d="M322.59,210.811c-1.766,2.232-4.464,10.202-1.813,11.241
			c2.176,0.854,37.312-28.286,50.004-33C382.554,184.679,330.38,200.958,322.59,210.811z"/>
		<path id="hairline_right_1_" fill="#231F20" d="M512.248,194.129c33.361,13.055,70.35,36.626,70.35,36.626
			c5.866-7.816-15.955-16.682-31.187-23.571C532.054,198.426,502.636,190.368,512.248,194.129z"/>
		<path id="sideburn_right_1_" fill="#231F20" d="M600.368,249.25c1.51,2.077,10.888,23.906,17.043,46.877
			c5.667,21.15,8.183,43.538,8.703,46.32c2.46,13.114,9.065-24.296,2.538-53.307C623.361,265.615,593.177,239.363,600.368,249.25z"
			/>
	</g>
	<g id="ear_1_">
		<path fill="#231F20" d="M222.865,347.646c1.466-1.167,5.383,0.327,6.209,2.008c1.165,2.369,0.114,6.742-0.771,11.831
			c-1.033,5.948-2.047,12.511-2.176,12.511c-1.36,0-1.573-8.932-2.72-16.545C222.756,353.116,221.823,348.476,222.865,347.646z"/>
		<path fill="#231F20" d="M244.125,377.033c0,7.748-4.383,20.443-6.324,20.443s-3.06-6.088-3.06-13.837
			c0-7.749,1.046-12.462,2.766-13.361C239.501,369.236,244.125,369.285,244.125,377.033z"/>
		<path fill="#231F20" d="M255.707,409.69c-1.717,8.056-7.332,17.928-10.087,17.341c-1.857-0.396-2.789-6.458-2.448-11.741
			c0.166-2.55,2.054-3.501,2.629-6.12c0.394-1.794,0.299-2.62,0.77-4.17c1.968-6.48,5.035-11.434,7.258-10.959
			C256.584,394.629,257.425,401.635,255.707,409.69z"/>
		<path fill="#231F20" d="M263.22,457.556c1.106,5.686-0.325,15.633-1.761,15.912c-1.436,0.28-3.134-4.027-4.241-9.712
			c-1.106-5.686-1.005-9.295,0.139-10.203C258.684,452.501,262.113,451.87,263.22,457.556z"/>
	</g>
	<path id="face_shadow_1_" fill="#231F20" d="M291.766,373.271c-6.527,12.512-23.692,95.253-20.308,123.78
		c7.47,62.957,96.702,135.142,97.912,124.02c0.777-7.144-8.415-38.834-5.561-71.317c2.167-24.653,8.548-54.068,14.748-71.559
		c2.359-6.656,7.394-10.638,7.495-16.924c0.057-3.52-3.196-10.327-5.561-12.934c-8.762-9.665-37.222-15.276-45.691-25.198
		c-7.396-8.664-5.229-33.088-13.667-40.742C315.866,377.62,295.054,366.967,291.766,373.271z"/>
	<polygon id="right_jawline_2_1_" fill="#231F20" points="633.127,441.554 634.094,452.855 636.511,449.381 635.492,441.554 	"/>
	<path id="right_jawline_1_" fill="#231F20" d="M629.741,450.634c-0.084-1.188,3.386,4.61,3.386,5.801
		c0.002,17.045-4.837,46.418-8.463,63.123c-0.076,0.354-3.385,4.569-3.385,4.569S632.158,484.964,629.741,450.634z"/>
	<g id="hat_1_">
		<path id="brim_1_" fill="#231F20" d="M431.047,98.099C217.832,94.143,80.565,180.403,80.565,282.025
			c0,70.428,39.757,135.395,149.552,166.311C156.294,418.854,117.56,363.674,117.56,288.36c0-93.366,110.007-161.117,305.48-152.355
			c178.974,8.022,307.175,62.802,320.206,148.058c1.172,7.656,7.616,100.812-108.427,154.845
			c78.691-21.758,120.709-63.041,132.077-146.166C782.471,178.84,619.194,101.59,431.047,98.099z"/>
		<g id="top_1_">
			<path fill="#231F20" d="M540.05,28.889c0,0,11.829,16.454,22.845,38.198c9.56,18.868,19.133,42.557,25.87,49.802
				c2.716,2.919-19.007-2.478-18.979-4.473C570.027,95.493,540.05,28.889,540.05,28.889z"/>
			<path fill="#231F20" d="M491.036,11.905c0,0,0.917,16.417,5.439,21.396c9.005,9.912,25.285,12.534,33.121,17.708
				c5.647,3.731,17.286,21.154,17.769,20.429c2.094-3.143-5.761-29.425-12.571-36.144C512.612,13.417,491.036,11.905,491.036,11.905
				z"/>
			<path fill="#231F20" d="M401.088,20.306c-17.89,22.242-25.109,30.562-32.686,41.34c-17.165,24.417-47.142,43.517-49.318,36.322
				c-2.343-7.745,19.005-39.181,29.979-48.168C387.26,18.516,404.951,15.504,401.088,20.306z"/>
			<path fill="#231F20" d="M448.787,2.657c-18.373-1.329-37.592,3.869-37.592,3.869s12.914-5.627,17.527-6.346
				c13.582-2.117,54.334,1.088,54.334,5.378C483.056,8.883,457.362,3.278,448.787,2.657z"/>
		</g>
	</g>
</g>
</svg>
